<svg id="Layer_1" data-name="Layer 1" xmlns="http://www.w3.org/2000/svg" xmlns:xlink="http://www.w3.org/1999/xlink" viewBox="0 0 26.9 36.86"><defs><style>.cls-1{fill:none;}.cls-2{clip-path:url(#clip-path);}.cls-3{fill:#002561;}.cls-4{fill:#fff;}.cls-5{fill:#231f20;}.cls-6{fill:#accdec;}</style><clipPath id="clip-path" transform="translate(-1.55 -0.98)"><rect id="SVGID" class="cls-1" x="1.55" y="0.98" width="26.9" height="36.86"/></clipPath></defs><title>kszk</title><g class="cls-2"><path class="cls-3" d="M5.21,37.84H9.91V1.63H7.8V29.19l-2.58,2.5v6.15Zm5.1-.38h9.1V1h-9.1V37.46Zm14.21.38H19.84V1.63h2.11V29.19l2.59,2.5v6.15Z" transform="translate(-1.55 -0.98)"/><path class="cls-4" d="M11.24,22.72a2,2,0,0,1,.33.22l0,0,.18.14s0,0,0-.08a2.46,2.46,0,0,0-.05-.35l0-.1h0l-.08-.4L11.59,22c-.1.23-.25.55-.35.75ZM14.79,32h-.65a.28.28,0,0,1-.12,0l-.24,0-.44,0h-.1c-.28,0-.56-.06-.85-.1l-.27,0-.27,0-.32-.06-.14,0-.83-.19-.15,0h0l-.33-.09-.26-.08-.26-.08L9.24,31l-.13,0-.39-.15-.08,0h0l-.31-.13-.15-.06h0l-.33-.15-.48-.24L7.07,30h0L7,29.93l-.36-.22-.11-.07-.28-.18L6,29.3l-.23-.16-.27-.21-.12-.1-.32-.28L5,28.5H5l-.25-.23-.12-.13-.25-.25-.1-.11,0,0L4,27.47,3.8,27.2l0-.06,0-.06-.2-.28-.3-.45-.07-.12h0l0,0L3,26l-.08-.15c-.07-.12-.13-.24-.18-.36l-.06-.12c0-.09-.1-.19-.14-.3l-.11-.27-.11-.27c0-.1-.07-.2-.11-.3l0-.08,0-.12c0-.1-.07-.19-.09-.3l-.15-.58c0-.11,0-.21-.07-.32v-.05l-.07-.33v0h0s0-.08,0-.12l0-.24h0c0-.2-.06-.42-.08-.63v-.18c0-.26,0-.52,0-.79v-.6c0-.1,0-.19,0-.28h0V19c0-.11,0-.22,0-.32h0v-.26c0-.09,0-.19,0-.29l0-.29,0-.29c0-.25.08-.51.13-.75h0l0-.19c0-.1,0-.19.07-.28H2l0-.09,0-.13c0-.1,0-.2.08-.3l.05-.17v0c.07-.23.14-.47.23-.71l.19-.5,0-.11h0l0,0L2.7,14l.07-.15c.11-.24.22-.47.34-.69h0L3.19,13c.05-.1.11-.2.17-.29h0l.08-.13.2-.33.3-.46.07-.1H4l0,0,.1-.13.1-.13.24-.3,0,0,.19-.22,0,0h0l.08-.09.38-.4.27-.27h0l.1-.09.23-.22L6,9.57l.22-.19.25-.2h0l.08-.06.06,0h0l.26-.19.47-.33.28-.17.12-.08c.26-.16.53-.31.8-.46s.55-.28.83-.4l.13-.06h0l.3-.13L10.37,7l.31-.11h0l.06,0,.12,0h0l.29-.1.57-.17.3-.08.1,0,.09,0h0l.3-.07.58-.12.3-.05.12,0,.09,0h0l.3-.05,1-.12.92-.07h1l.73,0h.16l.34,0h0l.16,0,.39,0,.12,0h0l.32,0,.56.11.32.07h0l.14,0,.4.11.11,0h0l.32.09.5.17.34.13.16.06.31.14h0l.11.05c.29.13.55.27.79.4l.12.07h0l.29.17.14.09h0L24,8l.42.31.27.21h0l.12.09a8.85,8.85,0,0,1,.68.63,8.72,8.72,0,0,1,.61.68,9,9,0,0,1,.56.75l.08.12h0l.18.28.08.13c.06.1.12.19.17.3l.11.22.11.22c.05.1.1.21.14.31h0l.06.14c0,.11.09.21.12.32h0l0,.13c0,.11.08.22.11.32l0,.13a9.08,9.08,0,0,1,.23.9,8.48,8.48,0,0,1,.15.9c0,.32.07.62.08.93,0,0,0,.1,0,.15h0c0,.11,0,.23,0,.35l0,.49v0c0,.3,0,.59-.07.87v.11c0,.11,0,.23,0,.33h0l0,.14c0,.11,0,.22-.06.33l0,.14c-.05.27-.13.54-.2.79l0,.1a7.94,7.94,0,0,1-.31.86v0c-.06.14-.12.28-.19.42l-.23.46a6.94,6.94,0,0,1-.47.77h0a8.2,8.2,0,0,1-.6.77l0,0a7.06,7.06,0,0,1-.64.65l-.4.33-.35.24,0,0a4.38,4.38,0,0,1-.87.43,2,2,0,0,1-.7.13,1.63,1.63,0,0,1-.34,0L22.51,25a1.5,1.5,0,0,1-.23-.11h0a1.6,1.6,0,0,1-.41-.33,3.92,3.92,0,0,1-.54-.84l-.14-.29-.07-.15,0-.09v0h0l-.14-.28,0-.05-.13.35c-.13.36-.24.63-.36.88a3.49,3.49,0,0,1-.49.83.89.89,0,0,1-.52.32h-.14a.74.74,0,0,1-.48-.17.79.79,0,0,1-.2-.25,1,1,0,0,1-.09-.28.66.66,0,0,1,0-.3l.07-.23.31-1,.11-.35.14-.44,0-.13.25-.78.32-1,.1-.3v0l.15-.44.26-.79,0,0,0,0-.11.15,0,0-.3.38c-.19.23-.39.47-.63.73s-.42.46-.62.66l-.7.69-.65.61-.48.43h.08l.52,0h.21a2.57,2.57,0,0,1,.56.08.92.92,0,0,1,.49.29.66.66,0,0,1,0,.8,1.39,1.39,0,0,1-.56.41,4.8,4.8,0,0,1-.93.3c-.32.07-.64.12-.94.17l-.68.09-.24,0-.33,0a1.57,1.57,0,0,1-.69-.14,1.12,1.12,0,0,1-.61-.91s0,0,0-.07a1.68,1.68,0,0,1-.82,1.24,1.39,1.39,0,0,1-.64.15,2.16,2.16,0,0,1-.94-.24,4,4,0,0,1-.91-.63l0,0-.08,0a1.74,1.74,0,0,1-.85.22,2.48,2.48,0,0,1-1.44-.53,4.19,4.19,0,0,1-1.06-1.18c-.08.21-.16.42-.26.62a5.87,5.87,0,0,1-.51.93,2.58,2.58,0,0,1-.27.34,1.06,1.06,0,0,1-.3.23.54.54,0,0,1-.23.06l-.15,0a.54.54,0,0,1-.31-.28.89.89,0,0,1-.07-.39,2.48,2.48,0,0,1,.05-.43c.06-.32.16-.64.25-.95l0-.12.13-.44h0c.06-.2.12-.42.18-.63l.2-.66.06-.2L6,19.37l.13-.44.27-.88.18-.61L6.72,17l0-.12v0h0l.09-.28L7,16l.24-.74.16-.5.39-1.2.07-.22,0-.09,0-.15v0l0,0H8L8.06,13,8.14,13h.05l.16-.07a1.29,1.29,0,0,1,.46-.09,1.16,1.16,0,0,1,.78.3h0a.31.31,0,0,1,.11.2.32.32,0,0,1,0,.15l0,.08v0l-.08.18-.05.13-.17.39h0l-.12.28c-.15.35-.3.72-.44,1.08-.31.79-.58,1.57-.82,2.31-.13.4-.24.78-.34,1.15l-.1.36.36-.29h0l.22-.18h0c.27-.22.55-.45.85-.65a2.38,2.38,0,0,1,.74-.36l.3-.06h.11l.15,0a.36.36,0,0,1,.26.24c.07.23-.09.47-.28.7h0a7.7,7.7,0,0,1-.54.57c-.28.27-.56.52-.77.71l-1,.85,0,0V21c0,.08,0,.17,0,.25a1.87,1.87,0,0,0,.16.53,2.27,2.27,0,0,0,.49.73.46.46,0,0,0,.29.12H9a1.09,1.09,0,0,0,.45-.23l.09-.06h0a2.51,2.51,0,0,0,.49-.43,1.44,1.44,0,0,0,.14-.23,13.71,13.71,0,0,0,.57-1.35l0-.09.27-.73,0,0v0l.08-.21,0-.06h0l0-.07,0-.15.19-.75.16-.65.12-.48,0-.08v0a.74.74,0,0,1,0-.14.72.72,0,0,1,.15-.22,1,1,0,0,1,.74-.27h.14a1.33,1.33,0,0,1,.89.37.89.89,0,0,1,.07,1,5.53,5.53,0,0,1-.28.56h0l-.07.13a3.69,3.69,0,0,0-.39,1,2.82,2.82,0,0,0,0,1,5.63,5.63,0,0,0,.12.62l0,.08a1.46,1.46,0,0,0,.06.22l.11.28a4,4,0,0,1,.29,1.67,2.22,2.22,0,0,1,.32-.63h0a3.53,3.53,0,0,1,.27-.34h0l0,0,.3-.33,0,0c.19-.2.4-.41.64-.64l.69-.64.21-.19,0,0,.46-.42.68-.63.06-.06,0,0,.05,0-.26,0-.25,0-.22,0a3.39,3.39,0,0,1-.59.06h0a.83.83,0,0,1-.71-.3.81.81,0,0,1-.15-.46.78.78,0,0,1,.42-.7,1.8,1.8,0,0,1,.56-.23h.06l.35-.07.33-.07.33-.07.09,0h0l.27-.05.38,0h0l.17,0,.81-.09h0l.36,0,.3,0a.82.82,0,0,1,.42.23,1.26,1.26,0,0,1,.22.28.93.93,0,0,1,.13.41v0l.19-.55.11-.34.15-.43,0-.1,0-.09.25-.72.33-1,.21-.6v0l.07-.21.1-.29v0l.05-.15,0,0,.07-.19a.46.46,0,0,1,.21-.25,1.15,1.15,0,0,1,.54-.12H23a1.63,1.63,0,0,1,.43.06h0a.62.62,0,0,1,.42.27.35.35,0,0,1,0,.29l-.22.52L23.3,15l-.37.94c-.11.28-.21.55-.32.86s-.18.52-.29.86-.18.61-.26.9-.15.6-.22.89l0,.16,1-.8.87-.68,0,0,.12-.09a1,1,0,0,1,.57-.14,1.33,1.33,0,0,1,.27,0A.77.77,0,0,1,25,18a.4.4,0,0,1,.16.21.38.38,0,0,1-.05.3l0,0h0l-.12.18a6.5,6.5,0,0,1-.64.75c-.25.25-.46.45-.67.64l-.44.38h0L23,20.7l-.61.55v0l.07.24.1.33v0l0,.07c.09.29.21.58.32.83L23,23l.06,0h0l.1-.07.33-.23,0,0a5.63,5.63,0,0,0,.67-.6,6,6,0,0,0,.57-.69,5.28,5.28,0,0,0,.44-.71,7.53,7.53,0,0,0,.37-.82c0-.14.11-.3.15-.45s.09-.32.13-.48,0-.2.07-.3h0l0-.11c0-.12,0-.25.07-.4v0c0-.28.08-.57.1-.86v-.13c0-.25,0-.52,0-.77V16s0,0,0-.07h0s0-.07,0-.1l0-.26,0-.26c0-.1,0-.2,0-.3l0-.15c0-.1,0-.21-.07-.31h0l0-.11a6,6,0,0,0-.28-.83c0-.12-.1-.24-.18-.4l0-.07L25.41,13l-.12-.21L25,12.4,24.78,12a7.28,7.28,0,0,0-.6-.68L23.85,11l-.35-.29c-.22-.17-.46-.35-.74-.53s-.49-.3-.79-.46-.54-.27-.83-.39-.55-.22-.86-.33-.63-.2-.89-.27-.55-.13-.82-.19h0l-.08,0c-.25-.05-.52-.09-.77-.12h-.1l-.41,0h-.13l-.29,0-.57,0h-.39c-.28,0-.61,0-.92,0L14,8.47l-.89.16c-.28.06-.58.13-.86.21l-.16,0h0l-.3.09-.5.17c-.27.09-.54.2-.8.31l-.06,0c-.28.12-.53.23-.76.35l-.15.07h0l-.28.15L9,10.19l-.24.14-.26.16-.12.08L8,10.78l-.1.07L7.7,11l-.35.27-.07.06-.08.07h0l0,0L7,11.58l-.12.11-.23.22L6.61,12l0,0h0l-.23.23-.22.25,0,0L6,12.62,5.67,13l-.19.26h0l0,0-.06.08-.16.24-.3.49c0,.08-.09.17-.14.26h0l-.07.13c0,.09-.1.2-.16.32l-.14.31-.08.18,0,.09,0,.06-.11.32c-.08.22-.15.46-.21.69l-.05.18c0,.09,0,.18-.06.28h0l0,.15,0,.09h0c0,.09,0,.17-.05.26l0,.16v0h0c0,.24-.08.49-.1.74l0,.58c0,.08,0,.17,0,.25h0s0,.08,0,.12v.17c0,.1,0,.21,0,.32s0,.21,0,.31v.17s0,.08,0,.12h0c0,.08,0,.17,0,.25l.06.59c0,.24.07.48.11.72v0l0,.17c0,.08,0,.17.06.26l0,.12,0,.12c0,.09,0,.18.06.26l.18.57c0,.09.06.17.1.26l0,.08,0,.11c0,.09.07.18.11.25l.06.13.19.39c0,.08.09.17.14.25h0l.07.12c.05.09.12.2.2.31l.19.27,0,0h0l0,.06.35.44.2.22.09.1.28.28.08.08h0l.22.2.25.21.05,0,.08.07.21.16.21.16.25.17.11.07a8.14,8.14,0,0,0,.71.42l.13.07.28.14L9,28.7l.3.13.48.19.29.11h0l.15.05c.26.09.53.17.79.24h0l.06,0c.27.07.55.14.88.21l.92.16c.32,0,.61.08.86.1s.52,0,.78,0h.13l.91,0h.16l.77-.07.95-.14c.26,0,.56-.1.86-.17l.88-.22c.24-.07.56-.17.87-.27s.57-.2.85-.32l.89-.4c.24-.11.49-.24.81-.42s.51-.28.76-.45l.32-.2.08-.05.11-.07.08.1.06.07.65.8.3.36.08.09.1.13-.14.08-.1.06-.78.49-.11.07-.7.43-.8.46c-.29.16-.59.31-.88.45s-.62.27-.89.37-.61.21-.89.29-.65.16-.94.23h0c-.25.05-.54.1-.89.15l-1,.11-.74.05h-.17l-.85,0h-.5Z" transform="translate(-1.55 -0.98)"/></g><path class="cls-5" d="M14.89,24.53a1.44,1.44,0,0,1-.63-.13,1,1,0,0,1-.52-.8,1.41,1.41,0,0,1,.33-.91h0a3.53,3.53,0,0,1,.26-.33l0,0,.29-.32,0,0c.19-.2.4-.41.63-.63l.69-.64.24-.22.46-.42.68-.63.08-.07.22-.21L17.8,19a4.46,4.46,0,0,0-.66.08l-.25,0-.22,0a3.24,3.24,0,0,1-.56.06h0a.7.7,0,0,1-.6-.24.68.68,0,0,1-.12-.39.64.64,0,0,1,.35-.57,1.65,1.65,0,0,1,.51-.21h.06l.35-.07.33-.07.33-.07.1,0,.25,0,.38,0,.18,0,.81-.09h0l.35,0,.27,0a.69.69,0,0,1,.34.19,1.1,1.1,0,0,1,.2.25.78.78,0,0,1,.11.35.66.66,0,0,1-.05.32,1.37,1.37,0,0,1-.14.22l0,0-.11.14,0,0-.29.37c-.19.23-.39.47-.63.73s-.42.45-.62.66l-.7.69-.65.6-.7.63-.13.11.54-.07.5,0h.2a2.45,2.45,0,0,1,.53.07.79.79,0,0,1,.42.24.51.51,0,0,1,0,.63,1.26,1.26,0,0,1-.5.37,4.62,4.62,0,0,1-.9.29c-.31.07-.63.12-.93.17l-.68.09-.25,0-.31,0Zm-3.83-1.74a2,2,0,0,1,.43.27l0,0a1.14,1.14,0,0,0,.27.18l.08,0s0,0,0,0a.47.47,0,0,0,0-.25,2.62,2.62,0,0,0-.05-.37l0-.1-.08-.41c0-.13-.05-.23-.08-.32a1,1,0,0,0-.1-.24h0a1.78,1.78,0,0,0-.1.21v0c-.12.28-.34.75-.44,1Zm1.07,2a2,2,0,0,1-.88-.23,3.88,3.88,0,0,1-.88-.61l-.12-.11-.17.1a1.64,1.64,0,0,1-.42.16,1.62,1.62,0,0,1-.36,0A2.34,2.34,0,0,1,8,23.66a4.13,4.13,0,0,1-1.18-1.41,9.21,9.21,0,0,1-.35.91,5.75,5.75,0,0,1-.5.9,2.42,2.42,0,0,1-.26.32.93.93,0,0,1-.26.2.4.4,0,0,1-.17,0l-.1,0a.4.4,0,0,1-.23-.21.76.76,0,0,1-.06-.33,2.33,2.33,0,0,1,0-.41c.06-.32.15-.63.24-.94l0-.12.13-.45c.06-.2.12-.42.18-.62l.2-.66.06-.2.38-1.26L6.27,19l.27-.88.19-.61.13-.42,0-.14L7,16.65l.19-.58.24-.74.16-.5L8,13.63,8,13.41l0-.09h0l0-.14h0l0,0,.07,0h0L8.4,13a1.15,1.15,0,0,1,.41-.08,1,1,0,0,1,.68.26h0a.16.16,0,0,1,.06.11.18.18,0,0,1,0,.08l0,.11-.08.18-.05.13-.17.4-.12.29c-.15.35-.3.72-.44,1.09-.31.79-.59,1.57-.82,2.32-.13.4-.24.78-.34,1.15-.05.19-.1.38-.14.56l-.05.22L8,19.24l.22-.18h0c.27-.22.55-.45.84-.65a2.25,2.25,0,0,1,.69-.34L10,18h.21a.21.21,0,0,1,.16.14c.05.16-.1.37-.26.56h0a7.47,7.47,0,0,1-.53.56c-.27.27-.55.52-.76.71l-1,.84-.09.08v.15c0,.08,0,.17,0,.25a2,2,0,0,0,.18.57,2.39,2.39,0,0,0,.53.77.6.6,0,0,0,.38.16H9a1.22,1.22,0,0,0,.52-.25l.1-.07a2.61,2.61,0,0,0,.52-.45,1.55,1.55,0,0,0,.15-.26,13.79,13.79,0,0,0,.57-1.36l0-.09.27-.73,0,0,.08-.23,0-.06,0-.09,0-.15.19-.75.16-.65.12-.48,0-.08v0a.61.61,0,0,1,0-.12.58.58,0,0,1,.12-.18.85.85,0,0,1,.64-.22h.13a1.19,1.19,0,0,1,.79.32.75.75,0,0,1,0,.84,5.33,5.33,0,0,1-.27.55l-.08.14a3.84,3.84,0,0,0-.4,1,3,3,0,0,0,0,1A5.78,5.78,0,0,0,13,21l0,.08a1.54,1.54,0,0,0,.07.24l.11.27a3.64,3.64,0,0,1,.25,1.89,1.54,1.54,0,0,1-.74,1.14,1.25,1.25,0,0,1-.58.13Zm2.66,7h-.65a.16.16,0,0,1-.08,0l-.27,0-.43,0h-.1c-.28,0-.56-.06-.84-.1l-.27,0-.27,0-.32-.06-.14,0-.82-.19-.15,0-.32-.09L9.86,31l-.26-.08-.3-.11-.13,0-.39-.15-.09,0-.31-.13-.15-.07-.32-.15L7.42,30l-.28-.16L7,29.81l-.35-.21-.12-.07-.27-.18-.23-.16L5.85,29l-.26-.21-.12-.1-.31-.27-.07-.06-.24-.23L4.72,28l-.25-.25-.09-.1,0,0-.22-.25-.21-.27,0-.06,0-.06-.2-.27-.3-.45-.06-.11,0,0L3.15,26l-.08-.15c-.07-.12-.13-.24-.18-.35l-.06-.12c0-.09-.1-.19-.14-.29l-.11-.27-.11-.27c0-.1-.07-.19-.1-.29l0-.09,0-.12c0-.09-.07-.19-.09-.29l-.15-.58c0-.1,0-.21-.07-.31v0l-.07-.33v0s0-.07,0-.11l0-.25c0-.2-.06-.41-.08-.62v-.18c0-.25,0-.52,0-.78v-.6c0-.09,0-.18,0-.27V19c0-.11,0-.21,0-.31V18.4c0-.09,0-.19,0-.28l0-.29,0-.29c0-.25.08-.5.13-.74l0-.19c0-.09,0-.19.06-.28l0-.1,0-.14c0-.1,0-.2.07-.29l.06-.19c.07-.23.14-.47.23-.7l.19-.5,0-.1,0,0,.07-.15.07-.15c.1-.24.22-.47.34-.69l.07-.15c0-.1.11-.19.16-.28l.08-.13.2-.32.3-.46.07-.09,0,0,.1-.13.1-.13.24-.3,0,0L4.8,11l0,0,.08-.09.38-.4.27-.26h0l.1-.09.23-.21.22-.19.22-.19.24-.19.09-.07.07-.05L7,9l.47-.33.27-.17.13-.08c.26-.16.52-.31.79-.45s.54-.28.82-.39l.14-.06.29-.13.53-.21.31-.11.06,0,.12,0,.29-.1.57-.17.29-.08.1,0,.1,0,.29-.07.58-.12.29-.05.12,0,.09,0,.3,0,1-.12.92-.07h1l.72,0h.16l.34,0,.16,0,.39,0,.13,0,.31,0,.56.11.31.07.14,0,.39.1.11,0,.31.09.5.17.33.13.16.06.3.13.11.05c.29.13.54.26.77.4l.12.07.28.17.14.09.29.19.42.31.26.21.12.1A10.08,10.08,0,0,1,26,10a9.06,9.06,0,0,1,.56.74l.08.12.18.28.08.14c.06.09.12.19.17.29l.11.22.11.22c.05.1.1.2.14.31l.06.15c0,.1.08.21.12.31l.05.14c0,.1.07.21.11.32l0,.13c.1.29.16.59.23.89a8.48,8.48,0,0,1,.15.89c0,.31.07.62.07.92,0,.05,0,.11,0,.16s0,.22,0,.34l0,.49v0c0,.29,0,.58-.07.86v.11c0,.11,0,.22,0,.32l0,.14c0,.11,0,.22-.06.32L28,19c-.05.26-.13.53-.2.78l0,.1a7.68,7.68,0,0,1-.3.85v0c-.06.14-.12.28-.19.42l-.23.45a6.85,6.85,0,0,1-.46.76h0a8.27,8.27,0,0,1-.59.76l0,0a7,7,0,0,1-.63.64l-.4.33-.34.23,0,0a4.24,4.24,0,0,1-.84.42,1.89,1.89,0,0,1-.65.12,1.49,1.49,0,0,1-.31,0l-.24-.07a1.31,1.31,0,0,1-.21-.1h0a1.46,1.46,0,0,1-.37-.3,3.81,3.81,0,0,1-.52-.82l-.14-.28-.07-.15-.05-.11-.14-.3-.18-.35-.23.66c-.13.36-.24.62-.35.87a3.35,3.35,0,0,1-.47.8.75.75,0,0,1-.44.27h-.11a.6.6,0,0,1-.39-.14.65.65,0,0,1-.16-.21.88.88,0,0,1-.07-.24.51.51,0,0,1,0-.23l.07-.23L19,23l.11-.36.14-.43,0-.13.25-.78.32-1L20,20l.15-.47.31-.94.32-1,.11-.34.15-.43,0-.1.28-.82.33-1,.22-.63.07-.21.11-.31.05-.15,0,0,.07-.19a.32.32,0,0,1,.15-.17,1,1,0,0,1,.48-.1H23a1.5,1.5,0,0,1,.39,0h0c.1,0,.27.07.33.2a.21.21,0,0,1,0,.18l-.21.52-.31.76-.37.94c-.11.28-.21.56-.32.86s-.18.52-.29.87-.18.61-.26.9-.15.61-.22.89l-.12.54h0l.28-.22,1.06-.82.87-.68,0,0,.11-.08a.89.89,0,0,1,.49-.11,1.18,1.18,0,0,1,.24,0,.64.64,0,0,1,.26.1.26.26,0,0,1,.1.13.24.24,0,0,1,0,.18l0,0-.11.17a6.39,6.39,0,0,1-.62.73c-.25.25-.46.45-.66.63l-.44.38-.28.24-.67.61h0v0l0,.08.07.25.1.33,0,.11c.09.29.21.59.32.85s.12.27.19.39l.2-.13.1-.07.34-.24,0,0a5.8,5.8,0,0,0,.69-.61,6.15,6.15,0,0,0,.59-.71,5.37,5.37,0,0,0,.45-.73,7.49,7.49,0,0,0,.37-.84c.05-.14.11-.3.16-.46s.09-.33.13-.48,0-.2.07-.3l0-.12c0-.12.05-.26.07-.41v0c0-.28.08-.58.1-.87v-.13c0-.26,0-.52,0-.78V16s0,0,0-.07,0-.08,0-.12l0-.26,0-.26c0-.1,0-.21,0-.31l0-.15c0-.11,0-.22-.07-.32l0-.12a6.2,6.2,0,0,0-.28-.85c0-.12-.11-.25-.18-.41l0-.07-.06-.12-.12-.21c-.07-.13-.15-.26-.24-.39l-.27-.38a7.42,7.42,0,0,0-.61-.69l-.34-.32-.35-.3c-.22-.18-.47-.35-.75-.54s-.5-.31-.8-.47-.54-.27-.84-.4-.55-.22-.87-.33-.63-.2-.9-.27-.56-.13-.84-.19l-.08,0c-.26-.05-.52-.09-.78-.13h-.1l-.42,0h-.13l-.3,0-.57,0h-.39c-.28,0-.61,0-.93,0L14,8.33l-.9.17c-.29.06-.58.13-.87.21l-.15,0-.31.09-.5.17c-.27.09-.54.2-.81.31l-.06,0c-.29.12-.54.23-.77.35l-.15.07-.29.15-.24.14-.24.14-.26.16-.12.07L8,10.66l-.09.07-.25.18-.35.27-.07.06-.09.08,0,0-.12.11-.12.11-.24.23-.05.05,0,0-.24.24L6,12.39l0,0-.08.09-.33.42-.19.26,0,.06-.06.08-.17.25-.3.49c-.05.09-.1.18-.14.27l-.07.13c0,.1-.11.21-.16.33l-.14.31-.08.18,0,.1,0,.05L4,15.79c-.08.23-.15.47-.21.7l-.05.18c0,.09,0,.19-.06.29l0,.15,0,.1c0,.09,0,.18-.05.26l0,.18c0,.24-.08.5-.1.75l0,.58c0,.08,0,.17,0,.26s0,.08,0,.12,0,.11,0,.16,0,.22,0,.32,0,.22,0,.32v.16s0,.08,0,.12,0,.18,0,.26l.06.59c0,.24.07.49.11.73l0,.19c0,.09,0,.18.06.27l0,.12,0,.12c0,.09,0,.18.07.27l.18.57c0,.09.07.18.1.27l0,.08,0,.11c0,.09.07.18.11.27l.06.13.19.39c0,.09.1.17.15.26l.07.12c.05.09.12.21.2.32l.19.27,0,0,.05.07.35.44.2.23.09.1.28.28.08.08.23.21.25.21.05,0,.09.08.21.16.21.16.26.17.11.07c.23.15.47.29.73.42l.12.07.28.14.15.07.3.14.48.19.3.11.14.05c.26.1.54.17.81.25l.06,0c.27.08.56.15.89.21l.93.16c.33,0,.61.08.87.1s.52,0,.79,0h.13l.92,0h.16l.78-.08,1-.14c.26,0,.56-.1.87-.17s.61-.14.88-.23.56-.17.88-.28.57-.2.86-.32l.9-.4c.24-.11.49-.24.82-.42s.51-.29.77-.45l.32-.2.08-.05.06.07.65.8.3.36.08.09-.1.06-.78.49-.11.07-.7.43-.79.46c-.29.16-.58.31-.87.44s-.61.26-.88.37-.6.21-.88.29-.64.16-.93.22-.53.1-.88.15l-1,.11-.74.05h-.17l-.84,0h-.49Z" transform="translate(-1.55 -0.98)"/><path class="cls-6" d="M11.4,21.79a2,2,0,0,1,.11-.24.18.18,0,0,1,.07-.08c.06,0,.1,0,.13.07a1.11,1.11,0,0,1,.11.26c0,.11.06.22.08.32l.1.5A2.74,2.74,0,0,1,12,23a.53.53,0,0,1,0,.31.2.2,0,0,1-.25,0,1.47,1.47,0,0,1-.34-.24,2,2,0,0,0-.5-.3s.34-.68.48-1Zm-1.19.31a3.23,3.23,0,0,1-.64.54,1.3,1.3,0,0,1-.56.27.67.67,0,0,1-.54-.18,2.47,2.47,0,0,1-.56-.81,2.15,2.15,0,0,1-.18-.6c0-.1,0-.21,0-.31l0-.15.14-.12,1-.84c.26-.23.51-.46.76-.71a7.38,7.38,0,0,0,.52-.55c.07-.08.42-.48.16-.54a.48.48,0,0,0-.17,0l-.27.05a2.14,2.14,0,0,0-.66.33c-.29.2-.57.43-.84.65l-1,.82-.12.09a.15.15,0,0,1,0-.09l0-.14.06-.27L7.37,19c.11-.39.22-.77.34-1.15.25-.78.53-1.56.83-2.33Q8.75,15,9,14.42l.29-.68.13-.31,0-.11a.08.08,0,0,0,0,0s0,0,0,0a1,1,0,0,0-1-.16l-.16.07h0l-.07,0h0l0,.09-.12.36-.39,1.2-.4,1.24-.19.58C7,16.82,7,17,7,17.1l-.31,1-.4,1.32L5.86,20.7l-.26.86c-.11.35-.2.71-.31,1.07s-.21.69-.28,1a2.19,2.19,0,0,0,0,.39.64.64,0,0,0,0,.28.29.29,0,0,0,.17.15.25.25,0,0,0,.19,0,.81.81,0,0,0,.23-.17A2.32,2.32,0,0,0,5.85,24a5.7,5.7,0,0,0,.49-.89A9.15,9.15,0,0,0,6.76,22,4.12,4.12,0,0,0,8,23.57,2,2,0,0,0,9.65,24a1.51,1.51,0,0,0,.39-.15l.19-.12,0,0s0,0,0,0l.05.05.12.11a3.81,3.81,0,0,0,.85.6,1.52,1.52,0,0,0,1.36.09,1.43,1.43,0,0,0,.69-1.06,3.56,3.56,0,0,0-.24-1.84L13,21.4a2.28,2.28,0,0,1-.1-.33,5.89,5.89,0,0,1-.13-.65,3.12,3.12,0,0,1,0-1.08,4,4,0,0,1,.41-1.06,7.16,7.16,0,0,0,.34-.67.68.68,0,0,0,0-.72,1.09,1.09,0,0,0-.72-.28.85.85,0,0,0-.68.19.46.46,0,0,0-.09.14,1,1,0,0,0,0,.14l0,.08-.29,1.13-.23.9a1.64,1.64,0,0,1-.06.16l-.1.28-.27.73a14.84,14.84,0,0,1-.61,1.46,1.67,1.67,0,0,1-.16.28Zm13.63,5.34.65.8.3.36-.78.48-.8.49-.79.46q-.43.23-.86.44c-.28.13-.58.25-.87.36s-.58.2-.87.29-.61.16-.92.22-.58.11-.87.15l-1,.11-.91.06-.95,0h-1l-.06,0-.29,0-.43,0c-.31,0-.63-.06-.94-.11l-.53-.09-.45-.09-.82-.19L10.15,31l-.53-.17-.43-.15-.38-.15-.39-.16-.47-.21-.48-.24-.38-.21-.35-.21-.38-.25-.45-.32c-.13-.09-.25-.2-.37-.3l-.31-.27-.31-.29-.37-.38-.13-.15-.22-.25C4.12,27.21,4,27.1,4,27s-.17-.22-.24-.33l-.3-.45-.09-.15-.17-.29c-.06-.11-.12-.23-.18-.34s-.14-.26-.19-.4l-.22-.54c0-.12-.09-.25-.13-.37s-.09-.26-.13-.4l-.15-.58c0-.12-.05-.24-.08-.35L2,22.45c0-.05,0-.1,0-.15,0-.29-.09-.58-.11-.87s-.06-.63-.06-.95v-.6c0-.12,0-.25,0-.37l0-.52c0-.15,0-.31,0-.46s0-.27,0-.4L2,17.55c0-.31.11-.62.16-.93,0-.13.06-.25.09-.37s.06-.29.1-.42c.09-.3.17-.59.28-.88l.19-.5.06-.14L3,14c.12-.28.27-.55.41-.83s.16-.27.24-.41l.19-.31.3-.46.09-.12.2-.27.23-.29L4.89,11l.1-.12.38-.4.27-.27L6,9.95l.44-.38.32-.25L7,9.08l.47-.33.39-.24q.38-.24.78-.45c.26-.14.54-.27.81-.39l.42-.19.53-.21.36-.13L11.23,7l.57-.17.39-.1.39-.1.58-.12.41-.07L14,6.37l1-.12,1-.07.32,0h.64c.29,0,.59,0,.88,0l.49,0,.38,0,.44.06.56.11.44.1.39.1.42.12.5.17.48.19.41.18c.26.12.52.25.77.39l.4.23c.14.09.29.18.42.27l.42.31c.13.09.25.2.37.3a8.56,8.56,0,0,1,.66.61,8.44,8.44,0,0,1,.6.66,8.77,8.77,0,0,1,.55.73c.09.13.18.26.26.4s.17.28.25.42l.23.45c.07.15.13.3.2.45s.12.3.17.45.1.29.15.44a9,9,0,0,1,.23.88,8.48,8.48,0,0,1,.15.87c0,.3.07.61.07.91s0,.32,0,.49l0,.51c0,.32,0,.64-.08,1,0,.15,0,.31-.07.46s-.06.31-.09.46-.15.58-.23.87a7.72,7.72,0,0,1-.3.83c-.06.15-.13.3-.2.45l-.23.45a6.82,6.82,0,0,1-.45.75,8.27,8.27,0,0,1-.58.76,7.09,7.09,0,0,1-.64.65l-.4.33c-.12.09-.25.18-.38.26a4.11,4.11,0,0,1-.82.41,1.65,1.65,0,0,1-.9.09l-.22-.06a1.41,1.41,0,0,1-.21-.1,1.32,1.32,0,0,1-.34-.28,3.72,3.72,0,0,1-.5-.79c-.07-.14-.14-.29-.2-.43l-.2-.41c-.09-.19-.19-.38-.3-.56-.1.3-.2.59-.31.89s-.22.58-.35.86a3.23,3.23,0,0,1-.45.78.66.66,0,0,1-.38.23.5.5,0,0,1-.41-.1.54.54,0,0,1-.14-.17.79.79,0,0,1-.06-.21.41.41,0,0,1,0-.18l.07-.23.31-1,.25-.79.3-.91.32-1,.25-.77.31-.94.32-1,.26-.77.32-.92.33-1,.29-.84.16-.46.08-.24a.21.21,0,0,1,.1-.12,1,1,0,0,1,.44-.09,1.44,1.44,0,0,1,.44,0c.09,0,.34.08.28.23l-.21.52-.31.76-.37.94c-.11.29-.22.58-.32.87s-.2.58-.29.87-.18.6-.26.91-.15.6-.22.9-.12.56-.18.84l.52-.4L23,19l.87-.68.15-.11a.79.79,0,0,1,.43-.09l.22,0a.55.55,0,0,1,.21.08.16.16,0,0,1,.06.08.13.13,0,0,1,0,.1l-.13.19a6.28,6.28,0,0,1-.61.72c-.21.21-.43.42-.66.62l-.71.62c-.24.21-.47.42-.7.65v0l0,.07,0,.1.07.25.13.44c.09.29.21.58.33.86a5,5,0,0,0,.25.51l.4-.26.37-.26a5.91,5.91,0,0,0,.7-.62,6.32,6.32,0,0,0,.6-.72,5.6,5.6,0,0,0,.46-.75,7.62,7.62,0,0,0,.38-.85c.06-.16.11-.31.16-.47s.09-.32.13-.48.06-.29.1-.43.05-.28.07-.42c0-.31.09-.61.11-.92s0-.62,0-.92V16c0-.06,0-.13,0-.2l0-.52c0-.16,0-.31-.07-.47s-.07-.3-.1-.45a6.32,6.32,0,0,0-.29-.86c-.06-.14-.12-.28-.19-.42s-.06-.13-.09-.19l-.12-.21c-.08-.14-.16-.27-.25-.4L25,11.88a7.46,7.46,0,0,0-.62-.71L24,10.85l-.36-.3c-.25-.2-.5-.38-.76-.55s-.53-.33-.81-.47-.56-.28-.85-.4-.58-.23-.88-.33-.6-.19-.91-.27-.61-.15-.92-.21-.6-.1-.89-.14l-.42,0-.44,0-.57,0h-.4c-.31,0-.63,0-.94,0s-.63.07-.94.12-.6.1-.9.17-.59.13-.88.22l-.47.14-.5.17c-.3.1-.59.22-.88.34s-.52.22-.78.36l-.44.23-.47.27-.38.24-.34.23-.35.25-.42.33L7,11.28l-.25.22-.3.29-.29.29-.22.25-.13.14-.33.42c-.08.11-.16.22-.24.33s-.16.22-.23.34l-.3.49c-.08.13-.14.27-.21.41s-.11.22-.16.34l-.21.49c0,.05,0,.11-.06.16l-.11.32c-.1.29-.18.59-.27.89,0,.14-.06.3-.1.44s-.06.24-.08.37c0,.31-.1.62-.13.94l0,.58c0,.13,0,.26,0,.39s0,.33,0,.49,0,.33,0,.49,0,.26,0,.39l.06.58c0,.31.09.62.14.93,0,.13.06.26.09.39s.06.27.1.4l.18.57c0,.12.09.24.14.36s.1.26.16.38l.26.52c.07.13.15.26.22.38s.13.22.21.33l.19.27.08.11.35.44c.09.12.2.22.3.33l.29.29.32.3.25.21.15.12.43.32.38.25c.24.16.48.3.74.43l.41.21.46.21.48.19.45.16c.28.1.58.18.87.27s.59.15.9.22.62.12.94.16.59.08.88.1.62,0,.93,0,.62,0,.92,0l.94-.09,1-.14c.29-.05.59-.1.88-.17s.6-.14.89-.23l.88-.28c.29-.1.58-.21.87-.33l.9-.4c.28-.13.56-.28.83-.43s.52-.29.78-.45l.32-.21M15.47,18.6a.54.54,0,0,1,.3-.47,1.55,1.55,0,0,1,.48-.19l.41-.09.66-.14a3.06,3.06,0,0,1,.33-.07l.56-.07.8-.09a2.63,2.63,0,0,1,.64,0,.58.58,0,0,1,.29.17,1,1,0,0,1,.18.22.68.68,0,0,1,.09.3.56.56,0,0,1,0,.27,1.47,1.47,0,0,1-.15.23l-.14.19-.29.37c-.2.25-.41.49-.62.73s-.41.44-.62.65l-.69.69-.64.6-.7.63-.43.37a7.71,7.71,0,0,1,.91-.14,5,5,0,0,1,.69,0,2.34,2.34,0,0,1,.51.07.7.7,0,0,1,.36.21.41.41,0,0,1,0,.5,1.17,1.17,0,0,1-.46.34,4.48,4.48,0,0,1-.88.28c-.3.07-.61.12-.92.17l-.92.11a1.59,1.59,0,0,1-.88-.1.88.88,0,0,1-.46-.71,1.35,1.35,0,0,1,.32-.85,4.11,4.11,0,0,1,.29-.37l.31-.34c.2-.22.41-.42.63-.63l.69-.64.7-.64.68-.64.3-.29.28-.29a3.5,3.5,0,0,0-.92.07l-.47.08a3.15,3.15,0,0,1-.56.06.62.62,0,0,1-.51-.2.58.58,0,0,1-.1-.33" transform="translate(-1.55 -0.98)"/></svg>